<?xml version="1.0" encoding="UTF-8"?>
<svg xmlns="http://www.w3.org/2000/svg" xmlns:xlink="http://www.w3.org/1999/xlink" viewBox="0 0 25 25" width="25px" height="25px">
<g id="surface588150">
<path style=" stroke:none;fill-rule:nonzero;fill:rgb(100%,100%,100%);fill-opacity:1;" d="M 4.5 2 C 3.125 2 2 3.125 2 4.5 L 2 20.5 C 2 21.875 3.125 23 4.5 23 L 20.5 23 C 21.875 23 23 21.875 23 20.5 L 23 4.5 C 23 3.125 21.875 2 20.5 2 Z M 4.5 3 L 20.5 3 C 21.335938 3 22 3.664062 22 4.5 L 22 20.5 C 22 21.335938 21.335938 22 20.5 22 L 4.5 22 C 3.664062 22 3 21.335938 3 20.5 L 3 4.5 C 3 3.664062 3.664062 3 4.5 3 Z M 7 5.503906 C 6.453125 5.503906 5.960938 5.667969 5.59375 5.976562 C 5.230469 6.285156 5.007812 6.742188 5.007812 7.234375 C 5.007812 8.167969 5.816406 8.894531 6.847656 8.964844 C 6.847656 8.96875 6.847656 8.96875 6.847656 8.96875 C 6.898438 8.984375 6.949219 8.992188 7 8.992188 C 8.136719 8.992188 8.996094 8.199219 8.996094 7.234375 C 8.992188 7.222656 8.992188 7.214844 8.992188 7.207031 C 8.941406 6.257812 8.09375 5.503906 7 5.503906 Z M 7 6.496094 C 7.695312 6.496094 7.972656 6.804688 8 7.246094 C 7.996094 7.675781 7.730469 8.007812 7 8.007812 C 6.308594 8.007812 5.996094 7.652344 5.996094 7.234375 C 5.996094 7.023438 6.070312 6.867188 6.230469 6.734375 C 6.390625 6.597656 6.648438 6.496094 7 6.496094 Z M 5.5 9.5 C 5.222656 9.5 5 9.722656 5 10 L 5 19.5 C 5 19.777344 5.222656 20 5.5 20 L 8.5 20 C 8.777344 20 9 19.777344 9 19.5 L 9 10 C 9 9.722656 8.777344 9.5 8.5 9.5 Z M 10 9.5 C 9.722656 9.5 9.5 9.722656 9.5 10 L 9.5 19.5 C 9.5 19.777344 9.722656 20 10 20 L 13 20 C 13.277344 20 13.5 19.777344 13.5 19.5 L 13.5 14.5 C 13.5 14.085938 13.613281 13.671875 13.8125 13.402344 C 14.011719 13.132812 14.261719 12.96875 14.742188 12.980469 C 15.234375 12.988281 15.496094 13.15625 15.691406 13.421875 C 15.890625 13.6875 16 14.082031 16 14.5 L 16 19.5 C 16 19.777344 16.222656 20 16.5 20 L 19.5 20 C 19.777344 20 20 19.777344 20 19.5 L 20 14.132812 C 20 12.648438 19.5625 11.476562 18.808594 10.683594 C 18.058594 9.890625 17.011719 9.5 15.90625 9.5 C 14.855469 9.5 14.054688 9.851562 13.5 10.210938 L 13.5 10 C 13.5 9.722656 13.277344 9.5 13 9.5 Z M 6 10.5 L 8 10.5 L 8 19 L 6 19 Z M 10.5 10.5 L 12.5 10.5 L 12.5 11.28125 C 12.5 11.496094 12.636719 11.6875 12.839844 11.753906 C 13.046875 11.824219 13.269531 11.753906 13.398438 11.582031 C 13.398438 11.582031 14.183594 10.5 15.90625 10.5 C 16.78125 10.5 17.535156 10.792969 18.082031 11.371094 C 18.632812 11.949219 19 12.84375 19 14.132812 L 19 19 L 17 19 L 17 14.5 C 17 13.917969 16.859375 13.3125 16.496094 12.824219 C 16.128906 12.332031 15.515625 11.992188 14.757812 11.980469 C 13.996094 11.964844 13.375 12.3125 13.007812 12.808594 C 12.640625 13.304688 12.5 13.914062 12.5 14.5 L 12.5 19 L 10.5 19 Z M 10.5 10.5 "/>
</g>
</svg>
